<svg aria-hidden="true" style="position: absolute; width: 0; height: 0; overflow: hidden;" version="1.1" xmlns="http://www.w3.org/2000/svg" xmlns:xlink="http://www.w3.org/1999/xlink">
<defs>
<symbol id="icon-download" viewBox="0 0 32 32">
<path fill="#4f4f4f" style="fill: var(--color1, #4f4f4f)" d="M13.5 0h5c0.831 0 1.5 0.669 1.5 1.5v10.5h5.481c1.112 0 1.669 1.344 0.881 2.131l-9.506 9.512c-0.469 0.469-1.238 0.469-1.706 0l-9.519-9.512c-0.787-0.787-0.231-2.131 0.881-2.131h5.487v-10.5c0-0.831 0.669-1.5 1.5-1.5zM32 23.5v7c0 0.831-0.669 1.5-1.5 1.5h-29c-0.831 0-1.5-0.669-1.5-1.5v-7c0-0.831 0.669-1.5 1.5-1.5h9.169l3.063 3.063c1.256 1.256 3.281 1.256 4.538 0l3.062-3.063h9.169c0.831 0 1.5 0.669 1.5 1.5zM24.25 29c0-0.688-0.562-1.25-1.25-1.25s-1.25 0.562-1.25 1.25c0 0.688 0.562 1.25 1.25 1.25s1.25-0.562 1.25-1.25zM28.25 29c0-0.688-0.562-1.25-1.25-1.25s-1.25 0.562-1.25 1.25c0 0.688 0.562 1.25 1.25 1.25s1.25-0.562 1.25-1.25z"></path>
</symbol>
<symbol id="icon-like" viewBox="0 0 37 32">
<path fill="#4f4f4f" style="fill: var(--color1, #4f4f4f)" d="M33.498 2.743c-3.805-3.243-9.465-2.66-12.958 0.944l-1.368 1.41-1.368-1.41c-3.486-3.604-9.153-4.188-12.958-0.944-4.361 3.722-4.59 10.403-0.688 14.437l13.438 13.875c0.868 0.896 2.278 0.896 3.146 0l13.438-13.875c3.91-4.035 3.681-10.715-0.681-14.438v0z"></path>
</symbol>
</defs>
</svg>
